<?xml version="1.0" encoding="UTF-8" standalone="no"?>
<svg
   xmlns:dc="http://purl.org/dc/elements/1.1/"
   xmlns:cc="http://creativecommons.org/ns#"
   xmlns:rdf="http://www.w3.org/1999/02/22-rdf-syntax-ns#"
   xmlns:svg="http://www.w3.org/2000/svg"
   xmlns="http://www.w3.org/2000/svg"
   xmlns:sodipodi="http://sodipodi.sourceforge.net/DTD/sodipodi-0.dtd"
   xmlns:inkscape="http://www.inkscape.org/namespaces/inkscape"
   version="1.1"
   id="svg2"
   xml:space="preserve"
   width="1333.3333"
   height="350"
   viewBox="0 0 1333.3333 350"
   sodipodi:docname="Mondiad cmyk.eps"><metadata
     id="metadata8"><rdf:RDF><cc:Work
         rdf:about=""><dc:format>image/svg+xml</dc:format><dc:type
           rdf:resource="http://purl.org/dc/dcmitype/StillImage" /></cc:Work></rdf:RDF></metadata><defs
     id="defs6" /><sodipodi:namedview
     pagecolor="#ffffff"
     bordercolor="#666666"
     borderopacity="1"
     objecttolerance="10"
     gridtolerance="10"
     guidetolerance="10"
     inkscape:pageopacity="0"
     inkscape:pageshadow="2"
     inkscape:window-width="640"
     inkscape:window-height="480"
     id="namedview4" /><g
     id="g10"
     inkscape:groupmode="layer"
     inkscape:label="ink_ext_XXXXXX"
     transform="matrix(1.3333333,0,0,-1.3333333,0,485.33333)">
	 <g id="g12" transform="scale(0.1)">
		 <path
			 d="m 2199.71,1530.7 v 1006.69 l -447.67,-603.24 h -52.19 l -448.11,588.61 -9.63,13.04 V 2228.18 H 977.102 v 666.48 20.84 h 303.168 l 439.64,-595.37 439.66,595.37 h 305.16 V 1530.7 h -265.02"
			 style="fill:#4674c3;fill-opacity:1;fill-rule:evenodd;stroke:none"
			 id="path14" />
		 <path
			 d="M 1242.1,2120.42 V 1530.7 H 977.102 v 328.28 H 644.441 v 261.44 h 206.528 77.215 313.916"
			 style="fill:#5ac251;fill-opacity:1;fill-rule:evenodd;stroke:none"
			 id="path16" />
		 <path
			 d="m 9028,2915.48 v -540.84 c -58.25,101 -220.84,156.47 -325.25,156.47 -289.06,0 -503.89,-174.31 -503.89,-511.13 0,-320.9 218.83,-511.14 509.94,-511.14 120.42,0 242.87,39.67 319.2,156.55 l 16.05,-134.77 h 228.83 v 1384.86 z m -303.18,-610.22 c 154.58,0 287.08,-114.9 287.08,-285.28 0,-176.33 -132.5,-287.27 -287.08,-287.27 -156.59,0 -281.03,116.89 -281.03,287.27 0,176.34 124.44,285.28 281.03,285.28 z m -1269.21,9.94 c 385.44,0 385.44,-592.35 0,-592.35 -162.58,0 -293.09,110.94 -293.09,297.13 0,186.27 130.51,295.22 293.09,295.22 z m 293.14,57.45 c -56.24,97.07 -182.71,158.46 -315.21,158.46 -289.07,2.02 -515.9,-174.31 -515.9,-511.13 0,-342.74 216.79,-521.07 509.88,-519.08 110.44,2.06 264.99,57.45 321.23,172.36 l 12.01,-142.64 h 230.89 v 976.73 h -234.88 z m -1311.37,410.12 c 0,-188.24 289.1,-188.24 289.1,0 0,188.2 -289.1,188.2 -289.1,0 z m 267,-271.45 v -980.7 h -244.94 v 980.7 z m -749.22,404.16 v -540.84 c -58.22,101 -220.85,156.47 -325.22,156.47 -289.09,0 -503.92,-174.31 -503.92,-511.13 0,-320.9 218.81,-511.14 509.94,-511.14 120.46,0 242.91,39.67 319.2,156.55 l 16.04,-134.77 h 228.88 V 2915.48 Z M 5652,2305.26 c 154.56,0 287.05,-114.9 287.05,-285.28 0,-176.33 -132.49,-287.27 -287.05,-287.27 -156.61,0 -281.06,116.89 -281.06,287.27 0,176.34 124.45,285.28 281.06,285.28 z m -737.21,-774.64 v 513.16 c 0,307.06 -186.69,479.42 -419.57,479.42 -124.48,0 -224.85,-49.54 -325.22,-146.57 l -16.06,132.71 h -218.81 v -978.72 h 242.88 v 499.29 c 0,148.61 102.41,273.37 252.96,273.37 156.59,0 238.92,-112.92 238.92,-261.49 v -511.17 z m -1704.84,776.63 c 164.62,0 269.01,-142.64 269.01,-289.26 0,-148.56 -90.34,-287.28 -269.01,-287.28 -178.66,0 -268.99,138.72 -268.99,287.28 0,146.62 92.33,289.26 268.99,289.26 z m -2.02,219.97 c -315.16,0 -511.91,-229.86 -511.91,-509.23 0,-281.31 192.72,-509.15 513.93,-509.15 321.22,0 515.98,227.84 515.98,509.15 0,279.37 -202.79,509.23 -518,509.23"
			 style="fill:#4674c3;fill-opacity:1;fill-rule:nonzero;stroke:none"
			 id="path18" />
	 </g>
	 </g>
 </svg>
